<?xml version="1.0" standalone="no"?>
<!DOCTYPE svg PUBLIC "-//W3C//DTD SVG 1.1//EN" "http://www.w3.org/Graphics/SVG/1.1/DTD/svg11.dtd" >
<svg xmlns="http://www.w3.org/2000/svg">
<metadata></metadata>
<defs>
<font id="expert_sansextra_bold" horiz-adv-x="1196" >
<font-face units-per-em="2048" ascent="1638" descent="-410" />
<missing-glyph horiz-adv-x="455" />
<glyph horiz-adv-x="2048" />
<glyph horiz-adv-x="2048" />
<glyph unicode="&#xd;" horiz-adv-x="455" />
<glyph unicode=" "  horiz-adv-x="455" />
<glyph unicode="&#x09;" horiz-adv-x="455" />
<glyph unicode="&#xa0;" horiz-adv-x="455" />
<glyph unicode="!" horiz-adv-x="588" d="M139 129q0 65 45 110.5t109 45.5t110 -46t46 -110t-46 -109t-110 -45t-109 45t-45 109zM162 401v979l282 66v-977z" />
<glyph unicode="&#x22;" horiz-adv-x="723" d="M82 1446h219l-20 -492h-179zM422 1446h219l-20 -492h-179z" />
<glyph unicode="#" horiz-adv-x="1311" d="M61 365v215h226l59 282h-285v215h330l76 369h215l-76 -369h246l76 369h215l-76 -369h182v-215h-227l-59 -282h286v-215h-329l-76 -365h-215l76 365h-246l-76 -365h-215l76 365h-183zM502 580h246l59 282h-246z" />
<glyph unicode="$" d="M106 113l70 215q138 -57 332 -78v375q-198 96 -288.5 191t-90.5 224q0 139 100 233.5t279 110.5v185h203v-178q189 -8 350 -72l-80 -209q-142 69 -270 76v-330q214 -100 300.5 -197t86.5 -239q0 -151 -102 -249.5t-285 -119.5v-225h-203v215q-228 10 -402 72zM371 1075 q0 -60 137 -129v240q-137 -12 -137 -111zM711 252q143 20 143 135q0 44 -28 74.5t-115 75.5v-285z" />
<glyph unicode="%" horiz-adv-x="1817" d="M74 1042q0 205 101 316.5t286 111.5q168 0 260 -104.5t92 -286.5q0 -202 -101.5 -315t-281.5 -113q-168 0 -262 105t-94 286zM301 1024q0 -95 39.5 -141.5t95.5 -46.5q80 0 115 65.5t35 196.5q0 90 -37 139t-96 49q-81 0 -116.5 -65.5t-35.5 -196.5zM381 -25l836 1495 h219l-836 -1495h-219zM1004 367q0 204 100.5 316t286.5 112q167 0 259.5 -104.5t92.5 -287.5q0 -202 -101.5 -315t-281.5 -113q-168 0 -262 105.5t-94 286.5zM1231 348q0 -90 38 -139t97 -49q80 0 115 65.5t35 196.5q0 90 -37 139t-97 49q-80 0 -115.5 -65.5t-35.5 -196.5z " />
<glyph unicode="&#x26;" horiz-adv-x="1458" d="M78 389q0 111 66.5 204t232.5 195q-156 160 -156 342q0 149 120 244.5t300 95.5q169 0 283 -81.5t114 -225.5q0 -106 -60 -187t-235 -200l297 -321q31 79 31 174q0 57 -29 135l234 57q31 -92 31 -186q0 -186 -113 -342l274 -293h-360l-96 104q-84 -58 -198.5 -92.5 t-221.5 -34.5q-236 0 -375 110.5t-139 301.5zM369 397q0 -87 67.5 -145.5t175.5 -58.5q140 0 252 71l-344 369q-151 -104 -151 -236zM479 1135q0 -80 119 -205q87 55 133.5 107.5t46.5 119.5q0 36 -39 67t-102 31q-71 0 -114.5 -37.5t-43.5 -82.5z" />
<glyph unicode="'" horiz-adv-x="383" d="M82 1446h219l-20 -492h-179z" />
<glyph unicode="(" horiz-adv-x="807" d="M141 557q0 259 122 534.5t298 467.5h187q-314 -511 -314 -1002q0 -498 309 -1008h-182q-186 202 -303 473t-117 535z" />
<glyph unicode=")" horiz-adv-x="807" d="M59 1559h187q190 -209 305 -483.5t115 -518.5q0 -264 -117 -535t-303 -473h-183q310 510 310 1008q0 486 -314 1002z" />
<glyph unicode="*" horiz-adv-x="1217" d="M106 936l330 131l-327 131l139 238l276 -228l-47 351h273l-52 -351l279 219l133 -237l-330 -133l322 -131l-131 -238l-281 223l49 -348h-274l55 357l-278 -222z" />
<glyph unicode="+" horiz-adv-x="1030" d="M61 618v209h351v351h211v-351h346v-209h-346v-346h-211v346h-351z" />
<glyph unicode="," horiz-adv-x="526" d="M100 102q0 67 46.5 114.5t113.5 47.5q76 0 121 -52t45 -138q0 -217 -213 -393l-94 81q96 84 121 183q-67 12 -103.5 55.5t-36.5 101.5z" />
<glyph unicode="-" horiz-adv-x="825" d="M125 399v240h575v-240h-575z" />
<glyph unicode="." horiz-adv-x="526" d="M100 104q0 66 47.5 113t112.5 47q67 0 116.5 -47.5t49.5 -112.5t-49.5 -112t-116.5 -47q-65 0 -112.5 47t-47.5 112z" />
<glyph unicode="/" horiz-adv-x="1065" d="M106 -25l668 1584h225l-667 -1584h-226z" />
<glyph unicode="0" d="M78 692q0 379 138 578.5t390 199.5q237 0 374.5 -194t137.5 -531q0 -376 -137 -573t-391 -197q-238 0 -375 191t-137 526zM395 682q0 -255 53 -372t136 -117q118 0 167.5 144t49.5 429q0 238 -54.5 362.5t-140.5 124.5q-110 0 -160.5 -142.5t-50.5 -428.5z" />
<glyph unicode="1" d="M244 1313l418 157h161v-1470h-297v1151l-252 -96z" />
<glyph unicode="2" d="M86 0v154q99 99 302.5 326.5t264 345.5t60.5 229q0 85 -49.5 133.5t-135.5 48.5q-135 0 -313 -115l-109 215q221 133 467 133q221 0 343 -104t122 -295q0 -172 -151.5 -378.5t-407.5 -461.5h586v-231h-979z" />
<glyph unicode="3" d="M76 45l86 217q149 -67 313 -67q136 0 206.5 64.5t70.5 172.5q0 109 -73.5 160t-232.5 51h-208l71 225h160q117 0 181.5 57t64.5 160q0 75 -47.5 121.5t-141.5 46.5q-155 0 -321 -104l-105 201q204 120 465 120q212 0 332.5 -93.5t120.5 -258.5q0 -246 -234 -342 q135 -32 211 -125.5t76 -222.5q0 -207 -147.5 -330t-423.5 -123q-238 0 -424 70z" />
<glyph unicode="4" d="M10 319v179l746 972h207v-938h131v-213h-131v-319h-291v319h-662zM303 532h369v486z" />
<glyph unicode="5" d="M98 47l84 215q160 -72 322 -72q121 0 191.5 74t70.5 201q0 118 -73 175.5t-191 57.5q-144 0 -293 -67l67 815h773l-74 -232h-475l-25 -305q53 9 109 9q212 0 353.5 -114t141.5 -315q0 -246 -152.5 -380t-434.5 -134q-220 0 -394 72z" />
<glyph unicode="6" d="M109 602q0 385 166.5 626.5t467.5 241.5q141 0 273 -43l-70 -210q-105 40 -201 40q-254 0 -303 -442q112 86 252 86q179 0 292.5 -117.5t113.5 -330.5q0 -207 -136.5 -342.5t-336.5 -135.5q-247 0 -382.5 164t-135.5 463zM416 504q0 -126 56 -218.5t146 -92.5 q168 0 168 233q0 110 -43 184t-120 74q-109 0 -203 -98q-4 -57 -4 -82z" />
<glyph unicode="7" d="M63 1198l78 248h924v-178l-547 -1268h-332l578 1198h-701z" />
<glyph unicode="8" d="M70 385q0 113 67.5 213t190.5 164q-98 58 -152.5 145.5t-54.5 188.5q0 183 138.5 278.5t350.5 95.5q203 0 330 -89t127 -242q0 -216 -223 -334q280 -141 280 -399q0 -198 -153 -314.5t-391 -116.5q-220 0 -365 112t-145 298zM348 406q0 -108 73 -165t189 -57 q106 0 173 47.5t67 122.5q0 61 -50 119t-282 170q-170 -95 -170 -237zM399 1137q0 -63 60 -111t176 -100q84 39 122 85.5t38 114.5q0 53 -51.5 95.5t-155.5 42.5q-85 0 -137 -37.5t-52 -89.5z" />
<glyph unicode="9" d="M96 41l76 213q150 -66 291 -66q128 0 208 117.5t93 329.5q-119 -90 -250 -90q-189 0 -302.5 117t-113.5 331q0 210 138 343.5t348 133.5q246 0 376 -158.5t130 -463.5q0 -431 -163 -652t-485 -221q-181 0 -346 66zM412 1020q0 -110 43 -184t120 -74q110 0 201 96 q6 36 6 84q0 125 -56 218t-146 93q-168 0 -168 -233z" />
<glyph unicode=":" horiz-adv-x="526" d="M100 104q0 66 47.5 113t112.5 47q67 0 116.5 -47.5t49.5 -112.5t-49.5 -112t-116.5 -47q-65 0 -112.5 47t-47.5 112zM100 741q0 66 47.5 113t112.5 47q67 0 116.5 -47.5t49.5 -112.5t-49.5 -112t-116.5 -47q-65 0 -112.5 47t-47.5 112z" />
<glyph unicode=";" horiz-adv-x="526" d="M100 102q0 67 46.5 114.5t113.5 47.5q76 0 121 -52t45 -138q0 -217 -213 -393l-94 81q96 84 121 183q-67 12 -103.5 55.5t-36.5 101.5zM100 741q0 66 47.5 113t112.5 47q67 0 116.5 -47.5t49.5 -112.5t-49.5 -112t-116.5 -47q-65 0 -112.5 47t-47.5 112z" />
<glyph unicode="&#x3c;" horiz-adv-x="1030" d="M61 618v209l908 347v-209l-637 -242l637 -242v-209z" />
<glyph unicode="=" horiz-adv-x="1030" d="M61 440v209h908v-209h-908zM61 803v209h908v-209h-908z" />
<glyph unicode="&#x3e;" horiz-adv-x="1030" d="M61 272v209l637 242l-637 242v209l908 -347v-209z" />
<glyph unicode="?" horiz-adv-x="971" d="M51 1366q177 104 410 104q198 0 312 -105t114 -294q0 -195 -105.5 -317t-304.5 -152v-143l-235 -58v404h94q258 0 258 260q0 92 -49.5 143.5t-120.5 51.5q-132 0 -277 -95zM215 129q0 66 46.5 113t111.5 47t110 -47t45 -113q0 -65 -44.5 -109.5t-110.5 -44.5 q-65 0 -111.5 45t-46.5 109z" />
<glyph unicode="@" horiz-adv-x="1923" d="M78 442q0 450 284 739t723 289q322 0 537 -208.5t215 -520.5q0 -339 -171.5 -550t-442.5 -211q-77 0 -125.5 40.5t-55.5 108.5q-30 -70 -97.5 -109.5t-153.5 -39.5q-156 0 -256.5 117.5t-100.5 303.5q0 277 160 465.5t412 188.5q110 0 231 -41l154 37l-103 -744 q-8 -53 -8 -82q0 -28 41 -28q126 0 219.5 146.5t93.5 375.5q0 262 -153.5 413.5t-413.5 151.5q-351 0 -568.5 -239t-217.5 -603q0 -316 189.5 -511t506.5 -195q215 0 392 79t349 248l131 -141q-179 -184 -389 -278.5t-514 -94.5q-365 0 -616.5 249t-251.5 644zM717 410 q0 -226 143 -226q63 0 108 60.5t56 140.5l63 461q-32 8 -73 8q-138 0 -217.5 -132t-79.5 -312z" />
<glyph unicode="A" horiz-adv-x="1423" d="M23 0l563 1409l260 61l555 -1470h-303l-129 342h-523l-137 -342h-286zM541 580h340l-166 442z" />
<glyph unicode="B" horiz-adv-x="1219" d="M156 0v1446q153 12 336 12q302 0 422 -80.5t120 -236.5q0 -99 -62.5 -187.5t-168.5 -130.5q163 -32 248.5 -131.5t85.5 -236.5q0 -227 -163.5 -347t-457.5 -120q-205 0 -360 12zM455 203h39q337 0 337 243q0 230 -274 230q-55 0 -102 -12v-461zM455 881q301 26 301 206 q0 83 -50 120.5t-176 37.5q-32 0 -75 -6v-358z" />
<glyph unicode="C" horiz-adv-x="1305" d="M84 690q0 354 191.5 567t533.5 213q233 0 418 -75l-84 -221q-178 81 -334 81q-196 0 -306 -141t-110 -393q0 -244 101.5 -379t281.5 -135t383 108l101 -225q-229 -115 -523 -115t-473.5 191t-179.5 524z" />
<glyph unicode="D" horiz-adv-x="1456" d="M156 0v1446q132 12 495 12q345 0 533 -176.5t188 -503.5q0 -410 -207 -600t-645 -190q-177 0 -364 12zM455 205q24 -2 86 -2q266 0 396 130.5t130 411.5q0 242 -108 372t-361 130q-88 0 -143 -6v-1036z" />
<glyph unicode="E" horiz-adv-x="1081" d="M156 0v1446h868l-68 -215h-501v-346h448l-65 -211h-383v-457h594v-217h-893z" />
<glyph unicode="F" horiz-adv-x="1090" d="M156 0v1446h909l-68 -215h-542v-344h471l-66 -211h-405v-676h-299z" />
<glyph unicode="G" horiz-adv-x="1407" d="M84 684q0 357 201 571.5t567 214.5q206 0 410 -75l-84 -221q-177 81 -328 81q-227 0 -343 -148.5t-116 -432.5q0 -222 97.5 -351.5t289.5 -129.5q113 0 219 47v475l293 69v-657q-229 -152 -561 -152q-299 0 -472 196t-173 513z" />
<glyph unicode="H" horiz-adv-x="1458" d="M156 0v1446h299v-561h549v561h299v-1446h-299v645h-549v-645h-299z" />
<glyph unicode="I" horiz-adv-x="635" d="M168 0v1446h299v-1446h-299z" />
<glyph unicode="J" horiz-adv-x="635" d="M-27 -53q119 50 157 107t38 145v1247h299v-1249q0 -156 -87.5 -263t-301.5 -194z" />
<glyph unicode="K" horiz-adv-x="1264" d="M156 0v1446h299v-549l456 549h359l-590 -682l592 -764h-359l-458 596v-596h-299z" />
<glyph unicode="L" horiz-adv-x="1073" d="M156 0v1446h299v-1186h594v-260h-893z" />
<glyph unicode="M" horiz-adv-x="1817" d="M115 0l118 1407l271 63l403 -948l379 881l287 67l129 -1470h-283l-80 922l-387 -918l-123 -29l-397 947l-76 -922h-241z" />
<glyph unicode="N" horiz-adv-x="1403" d="M145 0v1409l256 61l596 -888v864h260v-1428l-182 -43l-669 1002v-977h-261z" />
<glyph unicode="O" horiz-adv-x="1507" d="M84 684q0 364 186.5 575t515.5 211q296 0 466.5 -196t170.5 -498q0 -385 -183 -593t-525 -208q-291 0 -461 193t-170 516zM391 731q0 -538 348 -538q181 0 279 135t98 399q0 526 -346 526q-176 0 -277.5 -135t-101.5 -387z" />
<glyph unicode="P" horiz-adv-x="1208" d="M156 0v1446q166 12 374 12q312 0 453 -102t141 -295q0 -467 -669 -483v-578h-299zM455 788q354 8 354 254q0 205 -285 205q-40 0 -69 -4v-455z" />
<glyph unicode="Q" horiz-adv-x="1507" d="M84 684q0 364 186.5 575t515.5 211q296 0 466.5 -196t170.5 -498q0 -527 -336 -715q86 -63 234 -63l143 4v-225q-50 -10 -153 -10q-261 0 -477 215q-37 -7 -119 -7q-291 0 -461 193t-170 516zM391 731q0 -538 348 -538q181 0 279 135t98 399q0 526 -346 526 q-176 0 -277.5 -135t-101.5 -387z" />
<glyph unicode="R" horiz-adv-x="1290" d="M156 0v1446q168 12 417 12q268 0 398.5 -88t130.5 -278q0 -297 -273 -400l443 -692h-338l-391 637q-50 -8 -88 -8v-629h-299zM455 844q340 16 340 213q0 98 -54.5 143t-167.5 45q-84 0 -118 -6v-395z" />
<glyph unicode="S" horiz-adv-x="1120" d="M53 53l74 223q197 -86 420 -86q111 0 167 42.5t56 117.5q0 80 -64 135.5t-204 114.5q-226 96 -324 196t-98 275q0 174 139.5 286.5t388.5 112.5q206 0 396 -61l-80 -217q-159 63 -320 63q-119 0 -183.5 -40t-64.5 -113q0 -64 61.5 -113t231.5 -121q224 -93 315 -200.5 t91 -253.5q0 -216 -139 -327.5t-406 -111.5q-241 0 -457 78z" />
<glyph unicode="T" horiz-adv-x="1204" d="M-8 1221l69 225h1151l-69 -225h-391v-1221h-299v1221h-461z" />
<glyph unicode="U" horiz-adv-x="1360" d="M145 575v871h295v-879q0 -192 52 -283t206 -91q149 0 213 90t64 282v881h260v-862q0 -322 -123 -465.5t-424 -143.5q-292 0 -417.5 139t-125.5 461z" />
<glyph unicode="V" horiz-adv-x="1346" d="M23 1446h301l350 -963l364 963h285l-539 -1417l-223 -54z" />
<glyph unicode="W" horiz-adv-x="1890" d="M20 1446h289l246 -977l313 961l176 40l291 -999l264 975h271l-404 -1409l-260 -62l-262 902l-282 -840l-252 -62z" />
<glyph unicode="X" horiz-adv-x="1393" d="M25 0l518 750l-467 696h336l299 -469l309 469h305l-469 -672l520 -774h-338l-350 543l-362 -543h-301z" />
<glyph unicode="Y" horiz-adv-x="1264" d="M20 1446h316l297 -586l317 586h295l-477 -858v-588h-299v588z" />
<glyph unicode="Z" horiz-adv-x="1219" d="M84 0v178l680 1053h-668l68 215h993v-115l-721 -1114h723l-67 -217h-1008z" />
<glyph unicode="[" horiz-adv-x="883" d="M242 -426v1958h563v-186h-281v-1586h281v-186h-563z" />
<glyph unicode="\" horiz-adv-x="1065" d="M29 1559h225l668 -1584h-228z" />
<glyph unicode="]" horiz-adv-x="883" d="M78 -240h280v1586h-280v186h563v-1958h-563v186z" />
<glyph unicode="^" horiz-adv-x="1032" d="M25 670l438 776h108l435 -776h-172l-318 565l-317 -565h-174z" />
<glyph unicode="_" horiz-adv-x="1024" d="M-12 -154h1048v-102h-1048v102z" />
<glyph unicode="`" horiz-adv-x="838" d="M45 1481h356l261 -285h-195z" />
<glyph unicode="a" horiz-adv-x="1083" d="M78 289q0 92 41 163.5t123 120t203 72.5l227 45v31q0 131 -150 131q-127 0 -282 -102l-115 186q185 127 432 127q210 0 303.5 -93t93.5 -276v-434q0 -134 54 -227l-248 -58q-41 36 -58 113q-138 -113 -307 -113q-147 0 -232 82.5t-85 231.5zM365 289q0 -113 114 -113 q89 0 193 88v232q-219 -46 -263 -92.5t-44 -114.5z" />
<glyph unicode="b" horiz-adv-x="1188" d="M139 0v1491l283 68v-609q116 113 280 113q177 0 292.5 -133.5t115.5 -345.5q0 -292 -136 -444t-396 -152q-114 0 -240 59zM422 240q24 -16 63.5 -27.5t55.5 -11.5q154 0 217 87.5t63 274.5q0 74 -20 143.5t-60 107.5t-98 38q-111 0 -221 -143v-469z" />
<glyph unicode="c" horiz-adv-x="1024" d="M78 487q0 286 149 431t389 145q184 0 322 -62l-82 -206q-109 55 -227 55q-267 0 -267 -346q0 -136 67 -223.5t175 -87.5q111 0 254 73l98 -198q-161 -93 -370 -93q-237 0 -372.5 134t-135.5 378z" />
<glyph unicode="d" horiz-adv-x="1194" d="M78 518q0 246 129.5 395.5t314.5 149.5q143 0 244 -64v492l283 68v-1285q0 -89 11 -136.5t42 -104.5l-248 -58q-41 33 -57 115q-128 -115 -287 -115q-203 0 -317.5 142t-114.5 401zM367 524q0 -331 227 -331q68 0 120 49t52 98v430q-86 84 -172 84q-99 0 -163 -88.5 t-64 -241.5z" />
<glyph unicode="e" horiz-adv-x="1087" d="M78 516q0 253 136.5 400t356.5 147q202 0 313 -111.5t111 -328.5v-160h-633q0 -124 67.5 -201.5t178.5 -77.5q131 0 260 74l93 -192q-160 -91 -377 -91q-237 0 -371.5 146.5t-134.5 394.5zM365 653h364v41q0 72 -44.5 118t-113.5 46q-80 0 -138 -57t-68 -148z" />
<glyph unicode="f" horiz-adv-x="756" d="M4 852l59 186h140v45q0 246 101.5 361t318.5 115q128 0 245 -33l-75 -215q-79 28 -146 28q-85 0 -123.5 -55.5t-38.5 -173.5v-72h260l-59 -186h-201v-852h-282v852h-199z" />
<glyph unicode="g" horiz-adv-x="1188" d="M78 530q0 235 139.5 384t376.5 149q144 0 264 -70l191 45v-888q0 -305 -115.5 -453t-384.5 -148q-83 0 -190 24t-175 54l-28 232q208 -92 405 -92q99 0 152 63t53 260q-84 -102 -254 -102q-202 0 -318 142.5t-116 399.5zM367 520q0 -150 55.5 -232.5t163.5 -82.5 q76 0 128 48t52 101v467q-64 29 -135 29q-264 0 -264 -330z" />
<glyph unicode="h" horiz-adv-x="1208" d="M139 0v1491l283 68v-646q156 150 330 150q166 0 246.5 -92t80.5 -287v-684h-282v645q0 116 -29 154.5t-84 38.5q-124 0 -262 -193v-645h-283z" />
<glyph unicode="i" horiz-adv-x="561" d="M109 1327q0 72 49.5 122t122.5 50q72 0 123 -50t51 -122q0 -71 -51 -121.5t-123 -50.5t-122 50t-50 122zM139 0v995l283 68v-1063h-283z" />
<glyph unicode="j" horiz-adv-x="561" d="M-41 -258q115 49 147.5 104t32.5 160v989l283 68v-1108q0 -308 -342 -406zM109 1327q0 72 49.5 122t122.5 50q72 0 123 -50t51 -122q0 -71 -51 -121.5t-123 -50.5t-122 50t-50 122z" />
<glyph unicode="k" horiz-adv-x="1126" d="M139 0v1491l283 68v-842l319 321h369l-485 -442l508 -596h-338l-373 446v-446h-283z" />
<glyph unicode="l" horiz-adv-x="561" d="M139 0v1491l283 68v-1559h-283z" />
<glyph unicode="m" horiz-adv-x="1767" d="M139 0v1001l262 62v-164q154 164 336 164q202 0 264 -168q154 168 347 168q299 0 299 -379v-684h-283v610q0 124 -22 176t-87 52q-67 0 -144 -87.5t-77 -170.5v-580h-282v625q0 133 -28 173t-79 40q-69 0 -146 -87.5t-77 -170.5v-580h-283z" />
<glyph unicode="n" horiz-adv-x="1208" d="M139 0v1001l262 62v-172q172 172 353 172q325 0 325 -371v-692h-282v625q0 125 -26.5 169t-98.5 44q-77 0 -163.5 -88t-86.5 -177v-573h-283z" />
<glyph unicode="o" horiz-adv-x="1184" d="M78 498q0 254 145 409.5t369 155.5q235 0 374.5 -139t139.5 -385q0 -256 -141 -410t-373 -154t-373 140.5t-141 382.5zM367 518q0 -159 57 -244.5t166 -85.5q106 0 166.5 88t60.5 242q0 151 -60.5 241.5t-164.5 90.5q-108 0 -166.5 -89t-58.5 -243z" />
<glyph unicode="p" horiz-adv-x="1206" d="M104 1006l250 57q46 -52 56 -115q124 115 284 115q208 0 321 -145.5t113 -393.5q0 -242 -129 -395.5t-313 -153.5q-147 0 -248 64v-422l-280 -68v1229q0 68 -9.5 114.5t-44.5 113.5zM438 358q0 -74 44 -124t120 -50q113 0 175.5 90.5t62.5 251.5q0 320 -219 320 q-102 0 -183 -115v-373z" />
<glyph unicode="q" horiz-adv-x="1188" d="M78 485q0 276 133 427t383 151q145 0 264 -70l191 45v-1419l-283 -70v529q-84 -103 -262 -103q-190 0 -308 143t-118 367zM367 500q0 -148 59.5 -231t146.5 -83q89 0 141 47t52 115v473q-71 29 -143 29q-133 0 -194.5 -85.5t-61.5 -264.5z" />
<glyph unicode="r" horiz-adv-x="823" d="M139 0v1001l262 62v-158q115 158 299 158q61 0 131 -16l-53 -248q-62 22 -147 22q-88 0 -148.5 -67t-60.5 -170v-584h-283z" />
<glyph unicode="s" horiz-adv-x="952" d="M78 33l72 207q137 -62 299 -62q169 0 169 88q0 47 -41.5 80.5t-191.5 89.5t-214.5 133.5t-64.5 188.5q0 136 102 220.5t300 84.5t338 -59l-76 -207q-147 61 -268 61q-144 0 -144 -76q0 -29 34.5 -54t156.5 -69q325 -116 325 -350q0 -159 -107.5 -246.5t-320.5 -87.5 q-223 0 -368 58z" />
<glyph unicode="t" horiz-adv-x="735" d="M-16 852l59 186h121v265l282 67v-332h256l-59 -186h-197v-492q0 -112 11.5 -148t62.5 -36q70 0 142 25l49 -187q-140 -39 -260 -39q-152 0 -219.5 74t-67.5 256v547h-180z" />
<glyph unicode="u" horiz-adv-x="1208" d="M129 344v651l283 68v-672q0 -107 26.5 -148.5t96.5 -41.5q80 0 165.5 86t85.5 159v549l283 68v-770q0 -174 53 -260l-250 -58q-54 64 -61 172q-131 -172 -365 -172q-317 0 -317 369z" />
<glyph unicode="v" horiz-adv-x="1051" d="M8 1038h281l252 -620l245 620h256l-426 -1026l-159 -37z" />
<glyph unicode="w" horiz-adv-x="1614" d="M0 1038h287l225 -614l223 571l154 37l241 -604l234 610h248l-406 -1024l-168 -39l-239 598l-213 -557l-172 -41z" />
<glyph unicode="x" horiz-adv-x="1143" d="M31 0l389 530l-357 508h316l201 -305l206 305h293l-362 -491l383 -547h-316l-227 342l-235 -342h-291z" />
<glyph unicode="y" horiz-adv-x="1051" d="M12 1038h277l256 -657l248 657h251l-389 -997q-134 -348 -489 -492l-100 175q276 131 352 323z" />
<glyph unicode="z" horiz-adv-x="903" d="M41 0v188l448 633h-444l66 217h735v-153l-471 -664h526l-70 -221h-790z" />
<glyph unicode="{" horiz-adv-x="686" d="M109 555q96 63 96 246q0 103 -31 192t-31 205q0 196 217 361h232q-178 -144 -178 -349q0 -68 28 -161q39 -131 39 -238q0 -170 -133 -256q133 -86 133 -256q0 -107 -39 -238q-28 -93 -28 -161q0 -205 178 -349h-232q-217 165 -217 361q0 116 31 205t31 192q0 183 -96 246 z" />
<glyph unicode="|" horiz-adv-x="451" d="M125 -512v2048h199v-2048h-199z" />
<glyph unicode="}" horiz-adv-x="686" d="M94 -449q178 144 178 349q0 68 -28 161q-39 131 -39 238q0 170 133 256q-133 86 -133 256q0 107 39 238q28 93 28 161q0 205 -178 349h232q217 -165 217 -361q0 -116 -31 -205t-31 -192q0 -183 97 -246q-97 -63 -97 -246q0 -103 31 -192t31 -205q0 -196 -217 -361h-232z " />
<glyph unicode="~" horiz-adv-x="1141" d="M43 524v248q117 127 293 127q105 0 256 -68q160 -67 231 -67q112 0 273 160v-254q-126 -123 -291 -123q-89 0 -250 67q-150 66 -236 66q-64 0 -123.5 -33.5t-152.5 -122.5z" />
<glyph unicode="&#xa1;" horiz-adv-x="588" d="M139 909q0 64 45.5 109t110.5 45q64 0 109 -44.5t45 -109.5q0 -64 -45 -109.5t-109 -45.5t-110 45.5t-46 109.5zM143 -408v977l283 68v-979z" />
<glyph unicode="&#xa2;" horiz-adv-x="1024" d="M78 487q0 268 139 419.5t391 156.5l51 227h201l-55 -246q64 -11 133 -43l-82 -206q-60 28 -100 39l-148 -641q115 2 250 73l98 -198q-161 -93 -370 -93h-27l-51 -223h-201l60 260q-289 113 -289 475zM362 504q0 -135 66 -223l129 561q-195 -43 -195 -338z" />
<glyph unicode="&#xa3;" d="M96 635l60 188h114q-39 165 -39 246q0 197 126 299t372 102q196 0 369 -63l-82 -219q-154 63 -283 63q-109 0 -166 -44.5t-57 -127.5q0 -16 55 -256h355l-60 -188h-254q12 -65 12 -115q0 -90 -16.5 -153t-77.5 -136h615l-72 -231h-913v231h92q47 0 72.5 43.5t25.5 116.5 q0 89 -33 244h-215z" />
<glyph unicode="&#xa4;" d="M51 315l187 191q-62 100 -62 221q0 122 62 221l-187 191l133 137l191 -189q100 62 221 62q123 0 223 -62l191 189l133 -137l-187 -191q62 -99 62 -221q0 -121 -62 -221l187 -191l-133 -137l-191 189q-96 -60 -223 -60q-125 0 -221 60l-191 -189zM371 727q0 -95 65 -161 t160 -66q96 0 162.5 66t66.5 161t-70 162t-159 67q-94 0 -159.5 -67t-65.5 -162z" />
<glyph unicode="&#xa5;" d="M18 1446h293l291 -539l299 539h277l-404 -713h234v-182h-283v-94h279v-183h-279v-274h-283v274h-278v183h278v94h-274v182h242z" />
<glyph unicode="&#xa6;" horiz-adv-x="467" d="M133 -358v716h199v-716h-199zM133 666v716h199v-716h-199z" />
<glyph unicode="&#xa7;" horiz-adv-x="1094" d="M74 623q0 73 41 136.5t112 92.5q-131 101 -131 262q0 152 122.5 254t363.5 102q198 0 381 -73l-86 -217q-151 73 -289 73q-226 0 -226 -123q0 -56 60 -93.5t256 -119.5q136 -57 199.5 -100.5t103 -110t39.5 -151.5q0 -70 -41 -134.5t-113 -103.5q131 -96 131 -262 q0 -149 -121 -252.5t-364 -103.5q-223 0 -397 74l86 217q149 -74 309 -74q221 0 221 119q0 49 -46.5 88t-225.5 117q-250 108 -317.5 190t-67.5 193zM338 637q0 -38 66.5 -78.5t269.5 -124.5q82 24 82 101q0 38 -72 82t-264 118q-40 -14 -61 -42t-21 -56z" />
<glyph unicode="&#xa8;" horiz-adv-x="838" d="M33 1329q0 55 39 94t94 39t95 -39t40 -94t-40 -94t-95 -39t-94 39t-39 94zM535 1329q0 55 39 94t94 39t95 -39t40 -94t-40 -94t-95 -39t-94 39t-39 94z" />
<glyph unicode="&#xa9;" horiz-adv-x="1655" d="M70 713q0 202 101.5 378t277.5 277.5t378 101.5q312 0 535 -223t223 -534q0 -312 -223 -535t-535 -223q-311 0 -534 223t-223 535zM244 713q0 -240 171.5 -412t411.5 -172t412 172t172 412t-172 411.5t-412 171.5t-411.5 -171.5t-171.5 -411.5zM426 684q0 192 115 315 t336 123q121 0 243 -47l-49 -147q-107 47 -194 47q-121 0 -190 -73.5t-69 -201.5q0 -126 61.5 -197t164.5 -71q109 0 231 64l64 -146q-149 -69 -314 -69q-178 0 -288.5 108t-110.5 295z" />
<glyph unicode="&#xaa;" horiz-adv-x="657" d="M27 983q0 58 25.5 104t76.5 76.5t125 44.5l145 27v20q0 82 -94 82q-81 0 -178 -63l-72 117q118 79 273 79q250 0 250 -231v-272q0 -89 32 -144l-155 -37q-26 22 -37 72q-87 -72 -180 -72q-102 0 -156.5 51t-54.5 146zM207 983q0 -70 72 -70q53 0 120 56v145 q-135 -27 -163.5 -57t-28.5 -74z" />
<glyph unicode="&#xab;" horiz-adv-x="1495" d="M51 520l572 518h313l-571 -518l571 -520h-313zM598 520l571 518h314l-572 -518l572 -520h-314z" />
<glyph unicode="&#xac;" horiz-adv-x="1030" d="M61 801v209h906v-570h-215v361h-691z" />
<glyph unicode="&#xad;" horiz-adv-x="825" d="M125 399v240h575v-240h-575z" />
<glyph unicode="&#xae;" horiz-adv-x="1655" d="M70 713q0 202 101.5 378t277.5 277.5t378 101.5q312 0 535 -223t223 -534q0 -312 -223 -535t-535 -223q-311 0 -534 223t-223 535zM244 713q0 -240 171.5 -412t411.5 -172t412 172t172 412t-172 411.5t-412 171.5t-411.5 -171.5t-171.5 -411.5zM522 295v815q139 8 258 8 q328 0 328 -207q0 -167 -170 -225l274 -391h-208l-242 358q-23 -4 -55 -4v-354h-185zM707 770q211 9 211 121q0 106 -138 106q-43 0 -73 -4v-223z" />
<glyph unicode="&#xaf;" horiz-adv-x="1024" d="M-6 1595v103h1048v-103h-1048z" />
<glyph unicode="&#xb0;" horiz-adv-x="801" d="M76 1147q0 134 95 228.5t228 94.5t228.5 -95t95.5 -228q0 -134 -95 -229t-229 -95q-133 0 -228 95.5t-95 228.5zM240 1147q0 -66 46.5 -113t112.5 -47t113 47t47 113t-47 113t-113 47q-65 0 -112 -47t-47 -113z" />
<glyph unicode="&#xb1;" horiz-adv-x="1030" d="M61 0v209h908v-209h-908zM61 618v209h351v351h211v-351h346v-209h-346v-346h-211v346h-351z" />
<glyph unicode="&#xb2;" horiz-adv-x="887" d="M125 668v112q133 109 243 210.5t146.5 150.5t36.5 92q0 72 -105 72q-93 0 -245 -76l-72 155q169 86 346 86q149 0 228 -58t79 -169q0 -149 -325 -409h352v-166h-684z" />
<glyph unicode="&#xb3;" horiz-adv-x="887" d="M78 698l51 156q133 -41 250 -41q186 0 186 98q0 90 -215 90h-153l49 156h121q176 0 176 90q0 64 -129 64q-124 0 -250 -62l-64 148q156 73 328 73q147 0 233.5 -54.5t86.5 -149.5q0 -130 -148 -172q182 -50 182 -185q0 -115 -103.5 -185.5t-293.5 -70.5q-151 0 -307 45z " />
<glyph unicode="&#xb4;" horiz-adv-x="838" d="M174 1196l260 285h357l-422 -285h-195z" />
<glyph unicode="&#xb5;" horiz-adv-x="1219" d="M139 -451v1446l283 68v-672q0 -190 123 -190q96 0 174 77t78 168v549l282 68v-770q0 -174 54 -260l-250 -58q-29 35 -43.5 75.5t-14.5 66.5q-38 -66 -109.5 -104t-156.5 -38t-137 33v-391z" />
<glyph unicode="&#xb6;" horiz-adv-x="1145" d="M-8 1004q0 192 123.5 317t376.5 125h661v-242h-139v-1614h-240v1614h-147v-1614h-240v988q-190 23 -292.5 141t-102.5 285z" />
<glyph unicode="&#xb7;" horiz-adv-x="526" d="M100 723q0 65 47.5 112.5t112.5 47.5q67 0 116.5 -47.5t49.5 -112.5q0 -66 -49.5 -113t-116.5 -47q-65 0 -112.5 47.5t-47.5 112.5z" />
<glyph unicode="&#xb8;" horiz-adv-x="838" d="M203 -424l12 137q87 -28 154 -28q60 0 79 13t19 40q0 78 -164 78l80 196h162l-43 -104q164 -39 164 -178q0 -181 -291 -181q-85 0 -172 27z" />
<glyph unicode="&#xb9;" horiz-adv-x="887" d="M162 1382l342 88h67v-806h-188v589l-182 -47z" />
<glyph unicode="&#xba;" horiz-adv-x="733" d="M43 1116q0 160 92.5 257t231.5 97q148 0 235.5 -87t87.5 -242q0 -159 -91.5 -257t-231.5 -98q-145 0 -234.5 88t-89.5 242zM233 1128q0 -89 32.5 -142.5t99.5 -53.5q61 0 98 52.5t37 143.5q0 89 -35 143t-98 54q-64 0 -99 -52.5t-35 -144.5z" />
<glyph unicode="&#xbb;" horiz-adv-x="1495" d="M12 0l572 520l-572 518h314l571 -518l-571 -520h-314zM559 0l571 520l-571 518h313l572 -518l-572 -520h-313z" />
<glyph unicode="&#xbc;" horiz-adv-x="1817" d="M74 1382l342 88h67v-806h-188v589l-182 -47zM324 -25l835 1495h189l-836 -1495h-188zM946 160v157l486 486h196v-481h129v-162h-129v-160h-190v160h-492zM1174 322h264v266z" />
<glyph unicode="&#xbd;" horiz-adv-x="1817" d="M104 1382l342 88h68v-806h-188v589l-183 -47zM289 -25l835 1495h189l-836 -1495h-188zM1008 0v113q133 108 243 209.5t146.5 150.5t36.5 92q0 72 -107 72q-91 0 -244 -76l-71 156q169 86 346 86q149 0 228 -58.5t79 -169.5q0 -148 -326 -409h353v-166h-684z" />
<glyph unicode="&#xbe;" horiz-adv-x="1817" d="M49 698l51 156q128 -41 250 -41q187 0 187 98q0 90 -215 90h-154l49 156h121q176 0 176 90q0 64 -129 64q-122 0 -250 -62l-63 148q155 73 327 73q147 0 233.5 -54.5t86.5 -149.5q0 -130 -148 -172q183 -50 183 -185q0 -115 -104 -185.5t-294 -70.5q-156 0 -307 45z M414 -25l835 1495h189l-836 -1495h-188zM993 160v157l486 486h196v-481h129v-162h-129v-160h-190v160h-492zM1221 322h264v266z" />
<glyph unicode="&#xbf;" horiz-adv-x="971" d="M84 -33q0 195 105.5 317.5t304.5 151.5v144l235 57v-404h-94q-258 0 -258 -260q0 -92 49 -143t121 -51q132 0 276 94l97 -201q-178 -104 -410 -104q-198 0 -312 105.5t-114 293.5zM442 909q0 65 45 109.5t111 44.5q65 0 111.5 -45t46.5 -109q0 -66 -46.5 -112.5 t-111.5 -46.5t-110.5 46.5t-45.5 112.5z" />
<glyph unicode="&#xc0;" horiz-adv-x="1423" d="M23 0l563 1409l260 61l555 -1470h-303l-129 342h-523l-137 -342h-286zM338 1848h356l261 -285h-195zM541 580h340l-166 442z" />
<glyph unicode="&#xc1;" horiz-adv-x="1423" d="M23 0l563 1409l260 61l555 -1470h-303l-129 342h-523l-137 -342h-286zM487 1563l260 285h357l-422 -285h-195zM541 580h340l-166 442z" />
<glyph unicode="&#xc2;" horiz-adv-x="1423" d="M23 0l563 1409l260 61l555 -1470h-303l-129 342h-523l-137 -342h-286zM305 1563l317 285h217l318 -285h-221l-205 147l-205 -147h-221zM541 580h340l-166 442z" />
<glyph unicode="&#xc3;" horiz-adv-x="1423" d="M23 0l563 1409l260 61l555 -1470h-303l-129 342h-523l-137 -342h-286zM371 1563q0 89 35.5 140t84.5 70t97 19q61 0 166 -45q75 -30 113 -30q47 0 47 75h178q0 -113 -60.5 -171t-154.5 -58q-78 0 -168 43q-75 33 -110 33q-49 0 -49 -76h-179zM541 580h340l-166 442z" />
<glyph unicode="&#xc4;" horiz-adv-x="1423" d="M23 0l563 1409l260 61l555 -1470h-303l-129 342h-523l-137 -342h-286zM346 1696q0 55 39 94t94 39t95 -39t40 -94t-40 -94t-95 -39t-94 39t-39 94zM541 580h340l-166 442zM848 1696q0 55 39 94t94 39t95 -39t40 -94t-40 -94t-95 -39t-94 39t-39 94z" />
<glyph unicode="&#xc5;" horiz-adv-x="1423" d="M23 0l563 1409l260 61l555 -1470h-303l-129 342h-523l-137 -342h-286zM446 1818q0 113 82 195t195 82t194.5 -82t81.5 -195t-81.5 -194.5t-194.5 -81.5t-195 81.5t-82 194.5zM541 580h340l-166 442zM596 1816q0 -52 37 -89.5t90 -37.5q52 0 89.5 37.5t37.5 89.5 t-37.5 89.5t-89.5 37.5t-89.5 -37.5t-37.5 -89.5z" />
<glyph unicode="&#xc6;" horiz-adv-x="1858" d="M41 0l833 1446h926l-67 -215h-502v-346h448l-65 -211h-383v-457h594v-217h-893v301h-436l-172 -301h-283zM616 512h316v549z" />
<glyph unicode="&#xc7;" horiz-adv-x="1305" d="M84 690q0 354 191.5 567t533.5 213q233 0 418 -75l-84 -221q-178 81 -334 81q-196 0 -306 -141t-110 -393q0 -244 101.5 -379t281.5 -135t383 108l101 -225q-213 -107 -465 -113l-29 -69q164 -39 164 -178q0 -181 -291 -181q-85 0 -172 27l12 137q87 -28 154 -28 q60 0 79 13t19 40q0 78 -164 78l68 166q-259 36 -405 223.5t-146 484.5z" />
<glyph unicode="&#xc8;" horiz-adv-x="1081" d="M156 0v1446h868l-68 -215h-501v-346h448l-65 -211h-383v-457h594v-217h-893zM176 1848h356l261 -285h-195z" />
<glyph unicode="&#xc9;" horiz-adv-x="1081" d="M156 0v1446h868l-68 -215h-501v-346h448l-65 -211h-383v-457h594v-217h-893zM367 1563l260 285h357l-422 -285h-195z" />
<glyph unicode="&#xca;" horiz-adv-x="1081" d="M156 0v1446h868l-68 -215h-501v-346h448l-65 -211h-383v-457h594v-217h-893zM164 1563l317 285h217l318 -285h-221l-205 147l-205 -147h-221z" />
<glyph unicode="&#xcb;" horiz-adv-x="1081" d="M156 0v1446h868l-68 -215h-501v-346h448l-65 -211h-383v-457h594v-217h-893zM205 1696q0 55 39 94t94 39t95 -39t40 -94t-40 -94t-95 -39t-94 39t-39 94zM707 1696q0 55 39 94t94 39t95 -39t40 -94t-40 -94t-95 -39t-94 39t-39 94z" />
<glyph unicode="&#xcc;" horiz-adv-x="635" d="M-47 1848h356l261 -285h-195zM168 0v1446h299v-1446h-299z" />
<glyph unicode="&#xcd;" horiz-adv-x="635" d="M82 1563l260 285h357l-422 -285h-195zM168 0v1446h299v-1446h-299z" />
<glyph unicode="&#xce;" horiz-adv-x="635" d="M-100 1563l317 285h217l318 -285h-221l-205 147l-205 -147h-221zM168 0v1446h299v-1446h-299z" />
<glyph unicode="&#xcf;" horiz-adv-x="635" d="M-59 1696q0 55 39 94t94 39t95 -39t40 -94t-40 -94t-95 -39t-94 39t-39 94zM168 0v1446h299v-1446h-299zM443 1696q0 55 39 94t94 39t95 -39t40 -94t-40 -94t-95 -39t-94 39t-39 94z" />
<glyph unicode="&#xd0;" horiz-adv-x="1456" d="M55 618v213h101v615q132 12 495 12q345 0 533 -176.5t188 -503.5q0 -410 -207 -600t-645 -190q-177 0 -364 12v618h-101zM455 205q38 -2 86 -2q266 0 396 130.5t130 411.5q0 242 -108 372t-361 130q-89 0 -143 -6v-410h315v-213h-315v-413z" />
<glyph unicode="&#xd1;" horiz-adv-x="1403" d="M145 0v1409l256 61l596 -888v864h260v-1428l-182 -43l-669 1002v-977h-261zM348 1563q0 89 35.5 140t84.5 70t97 19q61 0 166 -45q75 -30 113 -30q47 0 47 75h178q0 -113 -60.5 -171t-154.5 -58q-78 0 -168 43q-75 33 -110 33q-49 0 -49 -76h-179z" />
<glyph unicode="&#xd2;" horiz-adv-x="1507" d="M84 684q0 364 186.5 575t515.5 211q296 0 466.5 -196t170.5 -498q0 -385 -183 -593t-525 -208q-291 0 -461 193t-170 516zM369 1848h356l261 -285h-195zM391 731q0 -538 348 -538q181 0 279 135t98 399q0 526 -346 526q-176 0 -277.5 -135t-101.5 -387z" />
<glyph unicode="&#xd3;" horiz-adv-x="1507" d="M84 684q0 364 186.5 575t515.5 211q296 0 466.5 -196t170.5 -498q0 -385 -183 -593t-525 -208q-291 0 -461 193t-170 516zM391 731q0 -538 348 -538q181 0 279 135t98 399q0 526 -346 526q-176 0 -277.5 -135t-101.5 -387zM539 1563l260 285h357l-422 -285h-195z" />
<glyph unicode="&#xd4;" horiz-adv-x="1507" d="M84 684q0 364 186.5 575t515.5 211q296 0 466.5 -196t170.5 -498q0 -385 -183 -593t-525 -208q-291 0 -461 193t-170 516zM336 1563l317 285h217l318 -285h-221l-205 147l-205 -147h-221zM391 731q0 -538 348 -538q181 0 279 135t98 399q0 526 -346 526 q-176 0 -277.5 -135t-101.5 -387z" />
<glyph unicode="&#xd5;" horiz-adv-x="1507" d="M84 684q0 364 186.5 575t515.5 211q296 0 466.5 -196t170.5 -498q0 -385 -183 -593t-525 -208q-291 0 -461 193t-170 516zM391 731q0 -538 348 -538q181 0 279 135t98 399q0 526 -346 526q-176 0 -277.5 -135t-101.5 -387zM401 1563q0 89 35.5 140t84.5 70t97 19 q61 0 166 -45q75 -30 113 -30q47 0 47 75h178q0 -113 -60.5 -171t-154.5 -58q-78 0 -168 43q-75 33 -110 33q-49 0 -49 -76h-179z" />
<glyph unicode="&#xd6;" horiz-adv-x="1507" d="M84 684q0 364 186.5 575t515.5 211q296 0 466.5 -196t170.5 -498q0 -385 -183 -593t-525 -208q-291 0 -461 193t-170 516zM377 1696q0 55 39 94t94 39t95 -39t40 -94t-40 -94t-95 -39t-94 39t-39 94zM391 731q0 -538 348 -538q181 0 279 135t98 399q0 526 -346 526 q-176 0 -277.5 -135t-101.5 -387zM879 1696q0 55 39 94t94 39t95 -39t40 -94t-40 -94t-95 -39t-94 39t-39 94z" />
<glyph unicode="&#xd7;" horiz-adv-x="1030" d="M61 420l306 303l-306 303l150 150l303 -306l303 306l150 -150l-305 -303l305 -303l-150 -150l-303 305l-303 -305z" />
<glyph unicode="&#xd8;" horiz-adv-x="1507" d="M84 684q0 364 186.5 575t515.5 211q222 0 379 -114l101 114l155 -155l-108 -123q110 -180 110 -416q0 -385 -183 -593t-525 -208q-220 0 -373 111l-98 -111l-156 156l105 119q-109 183 -109 434zM391 731q0 -126 21 -231l583 663q-83 90 -225 90q-176 0 -277.5 -135 t-101.5 -387zM512 283q87 -90 227 -90q181 0 279 135t98 399q0 130 -18 219z" />
<glyph unicode="&#xd9;" horiz-adv-x="1360" d="M145 575v871h295v-879q0 -192 52 -283t206 -91q149 0 213 90t64 282v881h260v-862q0 -322 -123 -465.5t-424 -143.5q-292 0 -417.5 139t-125.5 461zM274 1848h356l261 -285h-195z" />
<glyph unicode="&#xda;" horiz-adv-x="1360" d="M145 575v871h295v-879q0 -192 52 -283t206 -91q149 0 213 90t64 282v881h260v-862q0 -322 -123 -465.5t-424 -143.5q-292 0 -417.5 139t-125.5 461zM506 1563l260 285h357l-422 -285h-195z" />
<glyph unicode="&#xdb;" horiz-adv-x="1360" d="M145 575v871h295v-879q0 -192 52 -283t206 -91q149 0 213 90t64 282v881h260v-862q0 -322 -123 -465.5t-424 -143.5q-292 0 -417.5 139t-125.5 461zM262 1563l317 285h217l318 -285h-221l-205 147l-205 -147h-221z" />
<glyph unicode="&#xdc;" horiz-adv-x="1360" d="M145 575v871h295v-879q0 -192 52 -283t206 -91q149 0 213 90t64 282v881h260v-862q0 -322 -123 -465.5t-424 -143.5q-292 0 -417.5 139t-125.5 461zM303 1696q0 55 39 94t94 39t95 -39t40 -94t-40 -94t-95 -39t-94 39t-39 94zM805 1696q0 55 39 94t94 39t95 -39t40 -94 t-40 -94t-95 -39t-94 39t-39 94z" />
<glyph unicode="&#xdd;" horiz-adv-x="1264" d="M20 1446h316l297 -586l317 586h295l-477 -858v-588h-299v588zM457 1563l260 285h357l-422 -285h-195z" />
<glyph unicode="&#xde;" horiz-adv-x="1208" d="M156 0v1446h299v-285q39 2 75 2q312 0 453 -102t141 -295q0 -466 -669 -483v-283h-299zM455 494q354 7 354 254q0 204 -285 204q-40 0 -69 -4v-454z" />
<glyph unicode="&#xdf;" horiz-adv-x="1393" d="M4 852l59 186h140v45q0 242 117.5 359t363.5 117q206 0 318 -76.5t112 -225.5q0 -66 -29 -127.5t-108 -166.5q-54 -72 -68 -100.5t-14 -51.5q0 -39 38.5 -72.5t158.5 -91.5q268 -128 268 -342q0 -156 -102.5 -243t-274.5 -87q-235 0 -371 54l84 223q140 -66 271 -66 q145 0 145 88q0 33 -41.5 66.5t-179.5 101.5q-131 66 -186.5 142.5t-55.5 177.5q0 92 28.5 150.5t102.5 152.5q47 59 62.5 96t15.5 80q0 53 -45.5 87t-118.5 34q-209 0 -209 -234v-1128h-282v852h-199z" />
<glyph unicode="&#xe0;" horiz-adv-x="1083" d="M78 289q0 92 41 163.5t123 120t203 72.5l227 45v31q0 131 -150 131q-127 0 -282 -102l-115 186q185 127 432 127q210 0 303.5 -93t93.5 -276v-434q0 -134 54 -227l-248 -58q-41 36 -58 113q-138 -113 -307 -113q-147 0 -232 82.5t-85 231.5zM182 1481h356l261 -285h-195z M365 289q0 -113 114 -113q89 0 193 88v232q-219 -46 -263 -92.5t-44 -114.5z" />
<glyph unicode="&#xe1;" horiz-adv-x="1083" d="M78 289q0 92 41 163.5t123 120t203 72.5l227 45v31q0 131 -150 131q-127 0 -282 -102l-115 186q185 127 432 127q210 0 303.5 -93t93.5 -276v-434q0 -134 54 -227l-248 -58q-41 36 -58 113q-138 -113 -307 -113q-147 0 -232 82.5t-85 231.5zM352 1196l260 285h357 l-422 -285h-195zM365 289q0 -113 114 -113q89 0 193 88v232q-219 -46 -263 -92.5t-44 -114.5z" />
<glyph unicode="&#xe2;" horiz-adv-x="1083" d="M78 289q0 92 41 163.5t123 120t203 72.5l227 45v31q0 131 -150 131q-127 0 -282 -102l-115 186q185 127 432 127q210 0 303.5 -93t93.5 -276v-434q0 -134 54 -227l-248 -58q-41 36 -58 113q-138 -113 -307 -113q-147 0 -232 82.5t-85 231.5zM121 1196l317 285h217 l318 -285h-221l-205 147l-205 -147h-221zM365 289q0 -113 114 -113q89 0 193 88v232q-219 -46 -263 -92.5t-44 -114.5z" />
<glyph unicode="&#xe3;" horiz-adv-x="1083" d="M78 289q0 92 41 163.5t123 120t203 72.5l227 45v31q0 131 -150 131q-127 0 -282 -102l-115 186q185 127 432 127q210 0 303.5 -93t93.5 -276v-434q0 -134 54 -227l-248 -58q-41 36 -58 113q-138 -113 -307 -113q-147 0 -232 82.5t-85 231.5zM195 1196q0 89 35.5 140 t84.5 70t97 19q61 0 166 -45q75 -30 113 -30q47 0 47 75h178q0 -113 -60.5 -171t-154.5 -58q-78 0 -168 43q-75 33 -110 33q-49 0 -49 -76h-179zM365 289q0 -113 114 -113q89 0 193 88v232q-219 -46 -263 -92.5t-44 -114.5z" />
<glyph unicode="&#xe4;" horiz-adv-x="1083" d="M78 289q0 92 41 163.5t123 120t203 72.5l227 45v31q0 131 -150 131q-127 0 -282 -102l-115 186q185 127 432 127q210 0 303.5 -93t93.5 -276v-434q0 -134 54 -227l-248 -58q-41 36 -58 113q-138 -113 -307 -113q-147 0 -232 82.5t-85 231.5zM160 1329q0 55 39 94t94 39 t95 -39t40 -94t-40 -94t-95 -39t-94 39t-39 94zM365 289q0 -113 114 -113q89 0 193 88v232q-219 -46 -263 -92.5t-44 -114.5zM662 1329q0 55 39 94t94 39t95 -39t40 -94t-40 -94t-95 -39t-94 39t-39 94z" />
<glyph unicode="&#xe5;" horiz-adv-x="1083" d="M78 289q0 92 41 163.5t123 120t203 72.5l227 45v31q0 131 -150 131q-127 0 -282 -102l-115 186q185 127 432 127q210 0 303.5 -93t93.5 -276v-434q0 -134 54 -227l-248 -58q-41 36 -58 113q-138 -113 -307 -113q-147 0 -232 82.5t-85 231.5zM270 1452q0 113 82 195 t195 82t194.5 -82t81.5 -195t-81.5 -194.5t-194.5 -81.5t-195 81.5t-82 194.5zM365 289q0 -113 114 -113q89 0 193 88v232q-219 -46 -263 -92.5t-44 -114.5zM420 1450q0 -52 37 -89.5t90 -37.5q52 0 89.5 37.5t37.5 89.5t-37.5 89.5t-89.5 37.5t-89.5 -37.5t-37.5 -89.5z " />
<glyph unicode="&#xe6;" horiz-adv-x="1679" d="M78 289q0 92 41 163.5t123 120t203 72.5l227 45v31q0 131 -150 131q-127 0 -282 -102l-115 186q185 127 432 127q216 0 305 -127q120 127 301 127q202 0 313 -111.5t111 -328.5v-160h-633q0 -124 68 -201.5t178 -77.5q141 0 260 74l92 -192q-160 -91 -397 -91 q-252 0 -375 197q-69 -94 -166.5 -145.5t-197.5 -51.5q-163 0 -250.5 80.5t-87.5 233.5zM365 289q0 -113 114 -113q45 0 107.5 31t124.5 90q-34 78 -39 199q-219 -46 -263 -92.5t-44 -114.5zM954 653h367v41q0 72 -44.5 118t-113.5 46q-83 0 -141 -56t-68 -149z" />
<glyph unicode="&#xe7;" horiz-adv-x="1024" d="M78 487q0 286 149 431t389 145q184 0 322 -62l-82 -206q-109 55 -227 55q-267 0 -267 -346q0 -136 67 -223.5t175 -87.5q111 0 254 73l98 -198q-126 -74 -301 -91l-28 -69q164 -39 164 -178q0 -181 -291 -181q-85 0 -172 27l12 137q87 -28 154 -28q60 0 79 13t19 40 q0 78 -164 78l68 166q-202 26 -310 157.5t-108 347.5z" />
<glyph unicode="&#xe8;" horiz-adv-x="1087" d="M78 516q0 253 136.5 400t356.5 147q202 0 313 -111.5t111 -328.5v-160h-633q0 -124 67.5 -201.5t178.5 -77.5q131 0 260 74l93 -192q-160 -91 -377 -91q-237 0 -371.5 146.5t-134.5 394.5zM199 1481h356l261 -285h-195zM365 653h364v41q0 72 -44.5 118t-113.5 46 q-80 0 -138 -57t-68 -148z" />
<glyph unicode="&#xe9;" horiz-adv-x="1087" d="M78 516q0 253 136.5 400t356.5 147q202 0 313 -111.5t111 -328.5v-160h-633q0 -124 67.5 -201.5t178.5 -77.5q131 0 260 74l93 -192q-160 -91 -377 -91q-237 0 -371.5 146.5t-134.5 394.5zM365 653h364v41q0 72 -44.5 118t-113.5 46q-80 0 -138 -57t-68 -148zM369 1196 l260 285h357l-422 -285h-195z" />
<glyph unicode="&#xea;" horiz-adv-x="1087" d="M78 516q0 253 136.5 400t356.5 147q202 0 313 -111.5t111 -328.5v-160h-633q0 -124 67.5 -201.5t178.5 -77.5q131 0 260 74l93 -192q-160 -91 -377 -91q-237 0 -371.5 146.5t-134.5 394.5zM145 1196l317 285h217l318 -285h-221l-205 147l-205 -147h-221zM365 653h364v41 q0 72 -44.5 118t-113.5 46q-80 0 -138 -57t-68 -148z" />
<glyph unicode="&#xeb;" horiz-adv-x="1087" d="M78 516q0 253 136.5 400t356.5 147q202 0 313 -111.5t111 -328.5v-160h-633q0 -124 67.5 -201.5t178.5 -77.5q131 0 260 74l93 -192q-160 -91 -377 -91q-237 0 -371.5 146.5t-134.5 394.5zM186 1329q0 55 39 94t94 39t95 -39t40 -94t-40 -94t-95 -39t-94 39t-39 94z M365 653h364v41q0 72 -44.5 118t-113.5 46q-80 0 -138 -57t-68 -148zM688 1329q0 55 39 94t94 39t95 -39t40 -94t-40 -94t-95 -39t-94 39t-39 94z" />
<glyph unicode="&#xec;" horiz-adv-x="561" d="M-84 1481h356l261 -285h-195zM139 0v995l283 68v-1063h-283z" />
<glyph unicode="&#xed;" horiz-adv-x="561" d="M45 1196l260 285h357l-422 -285h-195zM139 0v995l283 68v-1063h-283z" />
<glyph unicode="&#xee;" horiz-adv-x="561" d="M-137 1196l317 285h217l318 -285h-221l-205 147l-205 -147h-221zM139 0v995l283 68v-1063h-283z" />
<glyph unicode="&#xef;" horiz-adv-x="561" d="M-96 1329q0 55 39 94t94 39t95 -39t40 -94t-40 -94t-95 -39t-94 39t-39 94zM139 0v995l283 68v-1063h-283zM406 1329q0 55 39 94t94 39t95 -39t40 -94t-40 -94t-95 -39t-94 39t-39 94z" />
<glyph unicode="&#xf0;" horiz-adv-x="1184" d="M78 498q0 255 142.5 410t334.5 155q153 0 236 -78q-34 120 -162 293l-262 -86l-56 156l230 75q-13 21 -111 136h209q32 -27 76 -78l237 78l56 -156l-187 -62q285 -372 285 -804q0 -254 -142 -408t-372 -154t-372 140t-142 383zM367 518q0 -159 57 -244.5t166 -85.5 q106 0 166.5 88t60.5 242q0 151 -60.5 241.5t-164.5 90.5q-108 0 -166.5 -89t-58.5 -243z" />
<glyph unicode="&#xf1;" horiz-adv-x="1208" d="M139 0v1001l262 62v-172q172 172 353 172q325 0 325 -371v-692h-282v625q0 125 -26.5 169t-98.5 44q-77 0 -163.5 -88t-86.5 -177v-573h-283zM252 1196q0 89 35.5 140t84.5 70t97 19q61 0 166 -45q75 -30 113 -30q47 0 47 75h178q0 -113 -60.5 -171t-154.5 -58 q-78 0 -168 43q-75 33 -110 33q-49 0 -49 -76h-179z" />
<glyph unicode="&#xf2;" horiz-adv-x="1184" d="M78 498q0 254 145 409.5t369 155.5q235 0 374.5 -139t139.5 -385q0 -256 -141 -410t-373 -154t-373 140.5t-141 382.5zM227 1481h356l261 -285h-195zM367 518q0 -159 57 -244.5t166 -85.5q106 0 166.5 88t60.5 242q0 151 -60.5 241.5t-164.5 90.5q-108 0 -166.5 -89 t-58.5 -243z" />
<glyph unicode="&#xf3;" horiz-adv-x="1184" d="M78 498q0 254 145 409.5t369 155.5q235 0 374.5 -139t139.5 -385q0 -256 -141 -410t-373 -154t-373 140.5t-141 382.5zM367 518q0 -159 57 -244.5t166 -85.5q106 0 166.5 88t60.5 242q0 151 -60.5 241.5t-164.5 90.5q-108 0 -166.5 -89t-58.5 -243zM377 1196l260 285h357 l-422 -285h-195z" />
<glyph unicode="&#xf4;" horiz-adv-x="1184" d="M78 498q0 254 145 409.5t369 155.5q235 0 374.5 -139t139.5 -385q0 -256 -141 -410t-373 -154t-373 140.5t-141 382.5zM174 1196l317 285h217l318 -285h-221l-205 147l-205 -147h-221zM367 518q0 -159 57 -244.5t166 -85.5q106 0 166.5 88t60.5 242q0 151 -60.5 241.5 t-164.5 90.5q-108 0 -166.5 -89t-58.5 -243z" />
<glyph unicode="&#xf5;" horiz-adv-x="1184" d="M78 498q0 254 145 409.5t369 155.5q235 0 374.5 -139t139.5 -385q0 -256 -141 -410t-373 -154t-373 140.5t-141 382.5zM240 1196q0 89 35.5 140t84.5 70t97 19q61 0 166 -45q75 -30 113 -30q47 0 47 75h178q0 -113 -60.5 -171t-154.5 -58q-78 0 -168 43q-75 33 -110 33 q-49 0 -49 -76h-179zM367 518q0 -159 57 -244.5t166 -85.5q106 0 166.5 88t60.5 242q0 151 -60.5 241.5t-164.5 90.5q-108 0 -166.5 -89t-58.5 -243z" />
<glyph unicode="&#xf6;" horiz-adv-x="1184" d="M78 498q0 254 145 409.5t369 155.5q235 0 374.5 -139t139.5 -385q0 -256 -141 -410t-373 -154t-373 140.5t-141 382.5zM215 1329q0 55 39 94t94 39t95 -39t40 -94t-40 -94t-95 -39t-94 39t-39 94zM367 518q0 -159 57 -244.5t166 -85.5q106 0 166.5 88t60.5 242 q0 151 -60.5 241.5t-164.5 90.5q-108 0 -166.5 -89t-58.5 -243zM717 1329q0 55 39 94t94 39t95 -39t40 -94t-40 -94t-95 -39t-94 39t-39 94z" />
<glyph unicode="&#xf7;" horiz-adv-x="1030" d="M61 618v209h908v-209h-908zM371 399q0 60 42.5 103t102.5 43t103 -43t43 -103t-43 -102.5t-103 -42.5t-102.5 43t-42.5 102zM371 1047q0 59 42.5 102t102.5 43t103 -43t43 -102q0 -60 -43 -103t-103 -43t-102.5 43t-42.5 103z" />
<glyph unicode="&#xf8;" horiz-adv-x="1184" d="M78 498q0 254 145 409.5t369 155.5q173 0 295 -76l67 76l129 -129l-65 -72q88 -126 88 -323q0 -256 -141 -410t-373 -154q-166 0 -293 76l-68 -76l-129 129l64 74q-88 132 -88 320zM367 518q0 -63 8 -106l346 389q-53 49 -129 49q-108 0 -166.5 -89t-58.5 -243zM459 231 q56 -43 131 -43q106 0 166.5 88t60.5 242q0 63 -8 107z" />
<glyph unicode="&#xf9;" horiz-adv-x="1208" d="M129 344v651l283 68v-672q0 -107 26.5 -148.5t96.5 -41.5q80 0 165.5 86t85.5 159v549l283 68v-770q0 -174 53 -260l-250 -58q-54 64 -61 172q-131 -172 -365 -172q-317 0 -317 369zM223 1481h356l261 -285h-195z" />
<glyph unicode="&#xfa;" horiz-adv-x="1208" d="M129 344v651l283 68v-672q0 -107 26.5 -148.5t96.5 -41.5q80 0 165.5 86t85.5 159v549l283 68v-770q0 -174 53 -260l-250 -58q-54 64 -61 172q-131 -172 -365 -172q-317 0 -317 369zM414 1196l260 285h357l-422 -285h-195z" />
<glyph unicode="&#xfb;" horiz-adv-x="1208" d="M129 344v651l283 68v-672q0 -107 26.5 -148.5t96.5 -41.5q80 0 165.5 86t85.5 159v549l283 68v-770q0 -174 53 -260l-250 -58q-54 64 -61 172q-131 -172 -365 -172q-317 0 -317 369zM190 1196l317 285h217l318 -285h-221l-205 147l-205 -147h-221z" />
<glyph unicode="&#xfc;" horiz-adv-x="1208" d="M129 344v651l283 68v-672q0 -107 26.5 -148.5t96.5 -41.5q80 0 165.5 86t85.5 159v549l283 68v-770q0 -174 53 -260l-250 -58q-54 64 -61 172q-131 -172 -365 -172q-317 0 -317 369zM231 1329q0 55 39 94t94 39t95 -39t40 -94t-40 -94t-95 -39t-94 39t-39 94zM733 1329 q0 55 39 94t94 39t95 -39t40 -94t-40 -94t-95 -39t-94 39t-39 94z" />
<glyph unicode="&#xfd;" horiz-adv-x="1051" d="M12 1038h277l256 -657l248 657h251l-389 -997q-134 -348 -489 -492l-100 175q276 131 352 323zM371 1196l260 285h357l-422 -285h-195z" />
<glyph unicode="&#xfe;" horiz-adv-x="1188" d="M139 -451v1942l283 68v-586q120 90 254 90q207 0 320.5 -145.5t113.5 -393.5q0 -247 -130.5 -398t-311.5 -151q-148 0 -248 64v-422zM420 358q0 -74 44 -124t120 -50q112 0 174.5 90.5t62.5 251.5q0 320 -219 320q-99 0 -182 -115v-373z" />
<glyph unicode="&#xff;" horiz-adv-x="1051" d="M12 1038h277l256 -657l248 657h251l-389 -997q-134 -348 -489 -492l-100 175q276 131 352 323zM147 1329q0 55 39 94t94 39t95 -39t40 -94t-40 -94t-95 -39t-94 39t-39 94zM649 1329q0 55 39 94t94 39t95 -39t40 -94t-40 -94t-95 -39t-94 39t-39 94z" />
<glyph unicode="&#x152;" horiz-adv-x="2040" d="M84 684q0 358 184.5 572t497.5 214q250 0 389 -161v137h827l-67 -215h-502v-346h449l-66 -211h-383v-457h594v-217h-852v170q-143 -195 -440 -195q-291 0 -461 193t-170 516zM391 731q0 -538 348 -538q181 0 279 135t98 399q0 526 -346 526q-176 0 -277.5 -135 t-101.5 -387z" />
<glyph unicode="&#x153;" horiz-adv-x="1827" d="M78 498q0 254 145 409.5t369 155.5q248 0 373 -164q140 164 346 164q201 0 312.5 -111.5t111.5 -328.5v-160h-633q0 -124 67.5 -201.5t178.5 -77.5q132 0 260 74l92 -192q-160 -91 -397 -91q-225 0 -349 172q-59 -79 -157.5 -125.5t-204.5 -46.5q-232 0 -373 140.5 t-141 382.5zM367 518q0 -159 57 -244.5t166 -85.5q106 0 166.5 88t60.5 242q0 151 -60.5 241.5t-164.5 90.5q-108 0 -166.5 -89t-58.5 -243zM1104 653h364v41q0 72 -44 118t-113 46q-81 0 -139 -57t-68 -148z" />
<glyph unicode="&#x178;" horiz-adv-x="1264" d="M20 1446h316l297 -586l317 586h295l-477 -858v-588h-299v588zM254 1696q0 55 39 94t94 39t95 -39t40 -94t-40 -94t-95 -39t-94 39t-39 94zM756 1696q0 55 39 94t94 39t95 -39t40 -94t-40 -94t-95 -39t-94 39t-39 94z" />
<glyph unicode="&#x2c6;" horiz-adv-x="838" d="M-8 1196l317 285h217l318 -285h-221l-205 147l-205 -147h-221z" />
<glyph unicode="&#x2dc;" horiz-adv-x="838" d="M57 1196q0 89 35.5 140t84.5 70t97 19q61 0 166 -45q75 -30 113 -30q47 0 47 75h178q0 -113 -60.5 -171t-154.5 -58q-78 0 -168 43q-75 33 -110 33q-49 0 -49 -76h-179z" />
<glyph unicode="&#x2000;" horiz-adv-x="1047" />
<glyph unicode="&#x2001;" horiz-adv-x="2095" />
<glyph unicode="&#x2002;" horiz-adv-x="1047" />
<glyph unicode="&#x2003;" horiz-adv-x="2095" />
<glyph unicode="&#x2004;" horiz-adv-x="698" />
<glyph unicode="&#x2005;" horiz-adv-x="523" />
<glyph unicode="&#x2006;" horiz-adv-x="349" />
<glyph unicode="&#x2007;" horiz-adv-x="349" />
<glyph unicode="&#x2008;" horiz-adv-x="261" />
<glyph unicode="&#x2009;" horiz-adv-x="419" />
<glyph unicode="&#x200a;" horiz-adv-x="116" />
<glyph unicode="&#x2010;" horiz-adv-x="825" d="M125 399v240h575v-240h-575z" />
<glyph unicode="&#x2011;" horiz-adv-x="825" d="M125 399v240h575v-240h-575z" />
<glyph unicode="&#x2012;" horiz-adv-x="825" d="M125 399v240h575v-240h-575z" />
<glyph unicode="&#x2013;" horiz-adv-x="1024" d="M-12 422v194h1048v-194h-1048z" />
<glyph unicode="&#x2014;" horiz-adv-x="2048" d="M-6 422v194h2060v-194h-2060z" />
<glyph unicode="&#x2018;" horiz-adv-x="526" d="M100 1161q0 217 213 393l95 -81q-97 -84 -121 -183q66 -12 102.5 -55.5t36.5 -101.5q0 -67 -46.5 -114.5t-113.5 -47.5q-76 0 -121 52t-45 138z" />
<glyph unicode="&#x2019;" horiz-adv-x="526" d="M100 1389q0 66 46.5 113.5t113.5 47.5q76 0 121 -52t45 -138q0 -217 -213 -393l-94 82q96 83 121 182q-67 12 -103.5 55.5t-36.5 102.5z" />
<glyph unicode="&#x201a;" horiz-adv-x="526" d="M100 102q0 67 46.5 114.5t113.5 47.5q76 0 121 -52t45 -138q0 -217 -213 -393l-94 81q96 84 121 183q-67 12 -103.5 55.5t-36.5 101.5z" />
<glyph unicode="&#x201c;" horiz-adv-x="940" d="M100 1161q0 217 213 393l95 -81q-97 -84 -121 -183q66 -12 102.5 -55.5t36.5 -101.5q0 -67 -46.5 -114.5t-113.5 -47.5q-76 0 -121 52t-45 138zM514 1161q0 217 213 393l94 -81q-96 -84 -121 -183q67 -12 103.5 -55.5t36.5 -101.5q0 -67 -47 -114.5t-113 -47.5 q-76 0 -121 52t-45 138z" />
<glyph unicode="&#x201d;" horiz-adv-x="940" d="M100 1389q0 66 46.5 113.5t113.5 47.5q76 0 121 -52t45 -138q0 -217 -213 -393l-94 82q96 83 121 182q-67 12 -103.5 55.5t-36.5 102.5zM514 1389q0 66 46.5 113.5t113.5 47.5q76 0 121 -52t45 -138q0 -217 -213 -393l-95 82q97 83 121 182q-66 12 -102.5 55.5 t-36.5 102.5z" />
<glyph unicode="&#x201e;" horiz-adv-x="940" d="M100 102q0 67 46.5 114.5t113.5 47.5q76 0 121 -52t45 -138q0 -217 -213 -393l-94 81q96 84 121 183q-67 12 -103.5 55.5t-36.5 101.5zM514 102q0 67 46.5 114.5t113.5 47.5q76 0 121 -52t45 -138q0 -217 -213 -393l-95 81q97 84 121 183q-66 12 -102.5 55.5t-36.5 101.5 z" />
<glyph unicode="&#x2022;" horiz-adv-x="700" d="M70 717q0 116 82 198t198 82t198.5 -82t82.5 -198t-82.5 -198.5t-198.5 -82.5t-198 82.5t-82 198.5z" />
<glyph unicode="&#x2026;" horiz-adv-x="2048" d="M180 104q0 66 47.5 113t112.5 47q67 0 116.5 -47.5t49.5 -112.5t-49.5 -112t-116.5 -47q-65 0 -112.5 47t-47.5 112zM862 104q0 66 47.5 113t112.5 47q66 0 116 -47.5t50 -112.5q0 -64 -50 -111.5t-116 -47.5q-65 0 -112.5 47t-47.5 112zM1544 104q0 66 47.5 113 t112.5 47q66 0 116 -47.5t50 -112.5q0 -64 -50 -111.5t-116 -47.5q-65 0 -112.5 47t-47.5 112z" />
<glyph unicode="&#x202f;" horiz-adv-x="419" />
<glyph unicode="&#x2039;" horiz-adv-x="946" d="M51 520l572 518h313l-571 -518l571 -520h-313z" />
<glyph unicode="&#x203a;" horiz-adv-x="946" d="M12 0l572 520l-572 518h314l571 -518l-571 -520h-314z" />
<glyph unicode="&#x205f;" horiz-adv-x="523" />
<glyph unicode="&#x20ac;" d="M31 774l59 182h92q57 249 212 381.5t384 132.5q213 0 369 -69l-84 -211q-140 65 -264 65q-240 0 -314 -299h480l-62 -182h-440l-2 -53v-41h411l-61 -182h-334q19 -139 95 -215t180 -76q144 0 307 96l106 -213q-197 -115 -438 -115q-229 0 -375.5 134.5t-181.5 388.5h-137 l59 182h62v10q0 60 2 84h-125z" />
<glyph unicode="&#x2122;" horiz-adv-x="1798" d="M35 1313l45 133h700l-47 -133h-231v-682h-189v682h-278zM766 631l72 794l168 35l239 -524l225 487l179 37l77 -829h-178l-45 504l-229 -502l-78 -17l-233 519l-43 -504h-154z" />
<glyph unicode="&#x25fc;" horiz-adv-x="1040" d="M0 0v1040h1040v-1040h-1040z" />
<glyph unicode="&#xfb01;" horiz-adv-x="1239" d="M4 852l59 186h140v45q0 157 56 263t167 159.5t270 53.5q189 0 367 -54l-72 -221q-152 59 -293 59q-102 0 -157.5 -59.5t-55.5 -173.5v-72h512l103 25v-1063h-283v852h-332v-852h-282v852h-199z" />
<glyph unicode="&#xfb02;" horiz-adv-x="1268" d="M4 852l59 186h140v45q0 476 502 476q50 0 93.5 -3t90.5 -12l96 -20l143 35v-1559h-280v1327q-78 16 -150 16q-103 0 -158 -60.5t-55 -172.5v-72h248l-69 -186h-179v-852h-282v852h-199z" />
</font>
</defs>
</svg>
